<?xml version="1.0" standalone="no"?>
<!DOCTYPE svg PUBLIC "-//W3C//DTD SVG 20010904//EN"
 "http://www.w3.org/TR/2001/REC-SVG-20010904/DTD/svg10.dtd">
<svg version="1.0" xmlns="http://www.w3.org/2000/svg"
 width="1024.000000pt" height="1024.000000pt" viewBox="0 0 1024.000000 1024.000000"
 preserveAspectRatio="xMidYMid meet">

<g transform="translate(0.000000,1024.000000) scale(0.100000,-0.100000)"
fill="#000000" stroke="none">
<path d="M675 10200 c-296 -44 -536 -249 -618 -529 l-22 -76 0 -4460 0 -4460
24 -93 c17 -68 38 -117 75 -178 105 -173 249 -284 448 -346 l73 -23 4410 -3
c2859 -2 4436 1 4485 7 319 42 575 275 641 581 12 55 14 748 14 4515 l0 4450
-22 80 c-72 254 -253 433 -525 517 l-73 23 -4430 1 c-2436 1 -4453 -2 -4480
-6z m1858 -1419 c274 -73 517 -308 602 -584 71 -232 50 -465 -62 -677 -172
-325 -540 -510 -905 -455 -298 44 -523 208 -662 480 -52 104 -77 209 -83 355
-9 218 46 400 172 568 19 25 131 137 170 170 67 55 231 131 330 152 120 26
323 22 438 -9z m4530 -2271 c347 -20 616 -89 837 -213 96 -54 119 -68 136 -82
6 -5 29 -23 50 -40 52 -40 172 -161 209 -210 17 -22 32 -42 35 -45 9 -9 56
-82 93 -145 121 -207 217 -548 257 -915 6 -58 14 -116 17 -130 3 -14 9 -737
12 -1608 l6 -1582 -762 0 -763 0 0 1348 c0 826 -4 1388 -10 1452 -30 308 -108
516 -249 663 -25 26 -50 47 -55 47 -5 0 -17 6 -25 14 -100 89 -350 141 -557
117 -236 -27 -371 -86 -505 -221 -71 -71 -94 -103 -137 -188 -80 -159 -123
-334 -142 -583 -6 -81 -10 -627 -10 -1391 l0 -1258 -755 0 -755 0 2 2428 3
2427 720 0 720 0 3 -332 c1 -187 6 -333 11 -333 8 0 34 38 76 110 41 69 182
219 308 326 19 17 148 104 152 104 3 0 29 16 60 35 30 20 90 49 132 66 43 16
87 34 98 39 111 47 318 89 490 99 66 4 125 8 130 9 6 1 81 -3 168 -8z m-4015
-2542 l2 -2428 -755 0 -755 0 0 2430 0 2430 753 -2 752 -3 3 -2427z"/>
</g>
</svg>
